<svg xmlns="http://www.w3.org/2000/svg" xmlns:xlink="http://www.w3.org/1999/xlink" width="500" zoomAndPan="magnify" viewBox="0 0 375 374.999991" height="500" preserveAspectRatio="xMidYMid meet" version="1.0"><defs><g/><clipPath id="0163c45e5e"><path d="M 4.722656 22.285156 L 369.972656 22.285156 L 369.972656 260 L 4.722656 260 Z M 4.722656 22.285156 " clip-rule="nonzero"/></clipPath><clipPath id="da24bf4ef6"><path d="M 187 22.285156 L 369.972656 22.285156 L 369.972656 260 L 187 260 Z M 187 22.285156 " clip-rule="nonzero"/></clipPath></defs><g clip-path="url(#0163c45e5e)"><path fill="#004aad" d="M 370.128906 175.683594 C 370.128906 200.117188 359.734375 222.125 343.117188 237.515625 C 328.085938 251.453125 307.964844 259.960938 285.851562 259.960938 L 89.136719 259.960938 C 42.59375 259.960938 4.863281 222.230469 4.863281 175.683594 C 4.863281 132.644531 37.136719 97.164062 78.800781 92.058594 C 97.484375 50.917969 138.921875 22.3125 187.046875 22.3125 C 235.132812 22.3125 276.53125 50.863281 295.246094 91.9375 C 337.363281 96.617188 370.128906 132.320312 370.128906 175.683594 " fill-opacity="1" fill-rule="nonzero"/></g><g clip-path="url(#da24bf4ef6)"><path fill="#004aad" d="M 295.246094 91.9375 C 276.59375 50.988281 235.390625 22.496094 187.5 22.320312 L 187.5 259.960938 L 285.851562 259.960938 C 307.964844 259.960938 328.085938 251.453125 343.117188 237.515625 C 359.734375 222.125 370.128906 200.117188 370.128906 175.683594 C 370.128906 132.320312 337.359375 96.617188 295.246094 91.9375 " fill-opacity="1" fill-rule="nonzero"/></g><path fill="#ffffff" d="M 265.945312 164.011719 L 250.257812 179.695312 C 215.570312 145.007812 159.429688 145.007812 124.738281 179.695312 L 109.046875 164.003906 C 152.40625 120.644531 222.582031 120.652344 265.945312 164.011719 " fill-opacity="1" fill-rule="nonzero"/><path fill="#ffffff" d="M 287.566406 142.386719 L 281.632812 148.320312 C 229.597656 96.28125 145.386719 96.28125 93.359375 148.3125 L 87.421875 142.375 C 81.933594 136.886719 82.347656 127.867188 88.320312 122.902344 C 145.707031 75.164062 229.28125 75.164062 286.671875 122.90625 C 292.640625 127.875 293.058594 136.894531 287.566406 142.386719 " fill-opacity="1" fill-rule="nonzero"/><path fill="#ffffff" d="M 234.566406 195.386719 L 218.875 211.078125 C 201.53125 193.730469 173.457031 193.734375 156.117188 211.078125 L 140.425781 195.386719 C 166.449219 169.367188 208.550781 169.363281 234.566406 195.386719 " fill-opacity="1" fill-rule="nonzero"/><path fill="#ffffff" d="M 203.191406 226.765625 L 196.75 233.207031 C 191.640625 238.3125 183.355469 238.3125 178.246094 233.207031 L 171.808594 226.765625 C 180.480469 218.09375 194.511719 218.089844 203.191406 226.765625 " fill-opacity="1" fill-rule="nonzero"/><g fill="#ffffff" fill-opacity="1"><g transform="translate(46.546866, 299.021436)"><g><path d="M 12.640625 0.28125 C 10.585938 0.28125 8.75 -0.0507812 7.125 -0.71875 C 5.5 -1.382812 4.195312 -2.367188 3.21875 -3.671875 C 2.25 -4.984375 1.738281 -6.5625 1.6875 -8.40625 L 8.953125 -8.40625 C 9.066406 -7.363281 9.425781 -6.566406 10.03125 -6.015625 C 10.644531 -5.472656 11.445312 -5.203125 12.4375 -5.203125 C 13.445312 -5.203125 14.242188 -5.429688 14.828125 -5.890625 C 15.421875 -6.359375 15.71875 -7.007812 15.71875 -7.84375 C 15.71875 -8.53125 15.484375 -9.097656 15.015625 -9.546875 C 14.546875 -10.003906 13.972656 -10.378906 13.296875 -10.671875 C 12.617188 -10.972656 11.65625 -11.3125 10.40625 -11.6875 C 8.59375 -12.238281 7.109375 -12.796875 5.953125 -13.359375 C 4.804688 -13.921875 3.820312 -14.75 3 -15.84375 C 2.175781 -16.9375 1.765625 -18.363281 1.765625 -20.125 C 1.765625 -22.738281 2.707031 -24.785156 4.59375 -26.265625 C 6.488281 -27.742188 8.957031 -28.484375 12 -28.484375 C 15.09375 -28.484375 17.582031 -27.742188 19.46875 -26.265625 C 21.363281 -24.785156 22.378906 -22.722656 22.515625 -20.078125 L 15.125 -20.078125 C 15.070312 -20.984375 14.738281 -21.695312 14.125 -22.21875 C 13.507812 -22.738281 12.722656 -23 11.765625 -23 C 10.929688 -23 10.257812 -22.78125 9.75 -22.34375 C 9.25 -21.90625 9 -21.269531 9 -20.4375 C 9 -19.53125 9.425781 -18.820312 10.28125 -18.3125 C 11.132812 -17.8125 12.46875 -17.269531 14.28125 -16.6875 C 16.09375 -16.070312 17.566406 -15.484375 18.703125 -14.921875 C 19.835938 -14.359375 20.816406 -13.539062 21.640625 -12.46875 C 22.460938 -11.40625 22.875 -10.035156 22.875 -8.359375 C 22.875 -6.753906 22.46875 -5.300781 21.65625 -4 C 20.84375 -2.695312 19.660156 -1.65625 18.109375 -0.875 C 16.566406 -0.101562 14.742188 0.28125 12.640625 0.28125 Z M 12.640625 0.28125 "/></g></g></g><g fill="#ffffff" fill-opacity="1"><g transform="translate(71.144418, 299.021436)"><g><path d="M 15.765625 0.28125 C 13.117188 0.28125 10.695312 -0.332031 8.5 -1.5625 C 6.300781 -2.789062 4.550781 -4.503906 3.25 -6.703125 C 1.957031 -8.898438 1.3125 -11.375 1.3125 -14.125 C 1.3125 -16.863281 1.957031 -19.328125 3.25 -21.515625 C 4.550781 -23.703125 6.300781 -25.410156 8.5 -26.640625 C 10.695312 -27.867188 13.117188 -28.484375 15.765625 -28.484375 C 18.398438 -28.484375 20.816406 -27.867188 23.015625 -26.640625 C 25.210938 -25.410156 26.945312 -23.703125 28.21875 -21.515625 C 29.488281 -19.328125 30.125 -16.863281 30.125 -14.125 C 30.125 -11.375 29.484375 -8.898438 28.203125 -6.703125 C 26.921875 -4.503906 25.1875 -2.789062 23 -1.5625 C 20.8125 -0.332031 18.398438 0.28125 15.765625 0.28125 Z M 15.765625 -5.953125 C 18.003906 -5.953125 19.796875 -6.695312 21.140625 -8.1875 C 22.484375 -9.6875 23.15625 -11.664062 23.15625 -14.125 C 23.15625 -16.601562 22.484375 -18.582031 21.140625 -20.0625 C 19.796875 -21.539062 18.003906 -22.28125 15.765625 -22.28125 C 13.492188 -22.28125 11.679688 -21.546875 10.328125 -20.078125 C 8.984375 -18.609375 8.3125 -16.625 8.3125 -14.125 C 8.3125 -11.644531 8.984375 -9.660156 10.328125 -8.171875 C 11.679688 -6.691406 13.492188 -5.953125 15.765625 -5.953125 Z M 15.765625 -5.953125 "/></g></g></g><g fill="#ffffff" fill-opacity="1"><g transform="translate(102.581291, 299.021436)"><g><path d="M 19.953125 -4.953125 L 9.484375 -4.953125 L 7.796875 0 L 0.640625 0 L 10.796875 -28.078125 L 18.71875 -28.078125 L 28.875 0 L 21.640625 0 Z M 18.203125 -10.234375 L 14.71875 -20.515625 L 11.28125 -10.234375 Z M 18.203125 -10.234375 "/></g></g></g><g fill="#ffffff" fill-opacity="1"><g transform="translate(132.058363, 299.021436)"><g><path d="M 16.796875 0 L 10.953125 -10.59375 L 9.3125 -10.59375 L 9.3125 0 L 2.484375 0 L 2.484375 -28.078125 L 13.953125 -28.078125 C 16.171875 -28.078125 18.054688 -27.691406 19.609375 -26.921875 C 21.171875 -26.148438 22.335938 -25.085938 23.109375 -23.734375 C 23.890625 -22.390625 24.28125 -20.890625 24.28125 -19.234375 C 24.28125 -17.367188 23.753906 -15.703125 22.703125 -14.234375 C 21.648438 -12.773438 20.097656 -11.738281 18.046875 -11.125 L 24.515625 0 Z M 9.3125 -15.4375 L 13.5625 -15.4375 C 14.8125 -15.4375 15.75 -15.742188 16.375 -16.359375 C 17 -16.972656 17.3125 -17.835938 17.3125 -18.953125 C 17.3125 -20.023438 17 -20.867188 16.375 -21.484375 C 15.75 -22.097656 14.8125 -22.40625 13.5625 -22.40625 L 9.3125 -22.40625 Z M 9.3125 -15.4375 "/></g></g></g><g fill="#ffffff" fill-opacity="1"><g transform="translate(158.135772, 299.021436)"><g><path d="M 9.3125 -22.59375 L 9.3125 -16.921875 L 18.484375 -16.921875 L 18.484375 -11.640625 L 9.3125 -11.640625 L 9.3125 -5.484375 L 19.6875 -5.484375 L 19.6875 0 L 2.484375 0 L 2.484375 -28.078125 L 19.6875 -28.078125 L 19.6875 -22.59375 Z M 9.3125 -22.59375 "/></g></g></g><g fill="#ffffff" fill-opacity="1"><g transform="translate(179.773619, 299.021436)"><g><path d="M 12.640625 0.28125 C 10.585938 0.28125 8.75 -0.0507812 7.125 -0.71875 C 5.5 -1.382812 4.195312 -2.367188 3.21875 -3.671875 C 2.25 -4.984375 1.738281 -6.5625 1.6875 -8.40625 L 8.953125 -8.40625 C 9.066406 -7.363281 9.425781 -6.566406 10.03125 -6.015625 C 10.644531 -5.472656 11.445312 -5.203125 12.4375 -5.203125 C 13.445312 -5.203125 14.242188 -5.429688 14.828125 -5.890625 C 15.421875 -6.359375 15.71875 -7.007812 15.71875 -7.84375 C 15.71875 -8.53125 15.484375 -9.097656 15.015625 -9.546875 C 14.546875 -10.003906 13.972656 -10.378906 13.296875 -10.671875 C 12.617188 -10.972656 11.65625 -11.3125 10.40625 -11.6875 C 8.59375 -12.238281 7.109375 -12.796875 5.953125 -13.359375 C 4.804688 -13.921875 3.820312 -14.75 3 -15.84375 C 2.175781 -16.9375 1.765625 -18.363281 1.765625 -20.125 C 1.765625 -22.738281 2.707031 -24.785156 4.59375 -26.265625 C 6.488281 -27.742188 8.957031 -28.484375 12 -28.484375 C 15.09375 -28.484375 17.582031 -27.742188 19.46875 -26.265625 C 21.363281 -24.785156 22.378906 -22.722656 22.515625 -20.078125 L 15.125 -20.078125 C 15.070312 -20.984375 14.738281 -21.695312 14.125 -22.21875 C 13.507812 -22.738281 12.722656 -23 11.765625 -23 C 10.929688 -23 10.257812 -22.78125 9.75 -22.34375 C 9.25 -21.90625 9 -21.269531 9 -20.4375 C 9 -19.53125 9.425781 -18.820312 10.28125 -18.3125 C 11.132812 -17.8125 12.46875 -17.269531 14.28125 -16.6875 C 16.09375 -16.070312 17.566406 -15.484375 18.703125 -14.921875 C 19.835938 -14.359375 20.816406 -13.539062 21.640625 -12.46875 C 22.460938 -11.40625 22.875 -10.035156 22.875 -8.359375 C 22.875 -6.753906 22.46875 -5.300781 21.65625 -4 C 20.84375 -2.695312 19.660156 -1.65625 18.109375 -0.875 C 16.566406 -0.101562 14.742188 0.28125 12.640625 0.28125 Z M 12.640625 0.28125 "/></g></g></g><g fill="#ffffff" fill-opacity="1"><g transform="translate(204.371171, 299.021436)"><g/></g></g><g fill="#ffffff" fill-opacity="1"><g transform="translate(212.850327, 299.021436)"><g><path d="M 20.765625 -28.078125 L 20.765625 -22.59375 L 9.3125 -22.59375 L 9.3125 -16.6875 L 17.875 -16.6875 L 17.875 -11.359375 L 9.3125 -11.359375 L 9.3125 0 L 2.484375 0 L 2.484375 -28.078125 Z M 20.765625 -28.078125 "/></g></g></g><g fill="#ffffff" fill-opacity="1"><g transform="translate(234.728156, 299.021436)"><g><path d="M 9.3125 -28.078125 L 9.3125 0 L 2.484375 0 L 2.484375 -28.078125 Z M 9.3125 -28.078125 "/></g></g></g><g fill="#ffffff" fill-opacity="1"><g transform="translate(246.52698, 299.021436)"><g><path d="M 19.484375 -14.40625 C 21.109375 -14.050781 22.410156 -13.238281 23.390625 -11.96875 C 24.378906 -10.707031 24.875 -9.265625 24.875 -7.640625 C 24.875 -5.296875 24.050781 -3.4375 22.40625 -2.0625 C 20.769531 -0.6875 18.488281 0 15.5625 0 L 2.484375 0 L 2.484375 -28.078125 L 15.125 -28.078125 C 17.976562 -28.078125 20.207031 -27.421875 21.8125 -26.109375 C 23.425781 -24.804688 24.234375 -23.035156 24.234375 -20.796875 C 24.234375 -19.140625 23.800781 -17.765625 22.9375 -16.671875 C 22.070312 -15.585938 20.921875 -14.832031 19.484375 -14.40625 Z M 9.3125 -16.71875 L 13.796875 -16.71875 C 14.921875 -16.71875 15.78125 -16.960938 16.375 -17.453125 C 16.976562 -17.953125 17.28125 -18.679688 17.28125 -19.640625 C 17.28125 -20.597656 16.976562 -21.328125 16.375 -21.828125 C 15.78125 -22.335938 14.921875 -22.59375 13.796875 -22.59375 L 9.3125 -22.59375 Z M 14.359375 -5.515625 C 15.503906 -5.515625 16.390625 -5.773438 17.015625 -6.296875 C 17.640625 -6.816406 17.953125 -7.570312 17.953125 -8.5625 C 17.953125 -9.550781 17.625 -10.320312 16.96875 -10.875 C 16.320312 -11.4375 15.425781 -11.71875 14.28125 -11.71875 L 9.3125 -11.71875 L 9.3125 -5.515625 Z M 14.359375 -5.515625 "/></g></g></g><g fill="#ffffff" fill-opacity="1"><g transform="translate(272.884346, 299.021436)"><g><path d="M 16.796875 0 L 10.953125 -10.59375 L 9.3125 -10.59375 L 9.3125 0 L 2.484375 0 L 2.484375 -28.078125 L 13.953125 -28.078125 C 16.171875 -28.078125 18.054688 -27.691406 19.609375 -26.921875 C 21.171875 -26.148438 22.335938 -25.085938 23.109375 -23.734375 C 23.890625 -22.390625 24.28125 -20.890625 24.28125 -19.234375 C 24.28125 -17.367188 23.753906 -15.703125 22.703125 -14.234375 C 21.648438 -12.773438 20.097656 -11.738281 18.046875 -11.125 L 24.515625 0 Z M 9.3125 -15.4375 L 13.5625 -15.4375 C 14.8125 -15.4375 15.75 -15.742188 16.375 -16.359375 C 17 -16.972656 17.3125 -17.835938 17.3125 -18.953125 C 17.3125 -20.023438 17 -20.867188 16.375 -21.484375 C 15.75 -22.097656 14.8125 -22.40625 13.5625 -22.40625 L 9.3125 -22.40625 Z M 9.3125 -15.4375 "/></g></g></g><g fill="#ffffff" fill-opacity="1"><g transform="translate(298.961767, 299.021436)"><g><path d="M 19.953125 -4.953125 L 9.484375 -4.953125 L 7.796875 0 L 0.640625 0 L 10.796875 -28.078125 L 18.71875 -28.078125 L 28.875 0 L 21.640625 0 Z M 18.203125 -10.234375 L 14.71875 -20.515625 L 11.28125 -10.234375 Z M 18.203125 -10.234375 "/></g></g></g><g fill="#ff3131" fill-opacity="1"><g transform="translate(50.29184, 331.449998)"><g><path d="M 5.125 -15.4375 L 5.125 0 L 1.359375 0 L 1.359375 -15.4375 Z M 5.125 -15.4375 "/></g></g></g><g fill="#ff3131" fill-opacity="1"><g transform="translate(56.780685, 331.449998)"><g><path d="M 15.1875 0 L 11.421875 0 L 5.125 -9.53125 L 5.125 0 L 1.359375 0 L 1.359375 -15.4375 L 5.125 -15.4375 L 11.421875 -5.875 L 11.421875 -15.4375 L 15.1875 -15.4375 Z M 15.1875 0 "/></g></g></g><g fill="#ff3131" fill-opacity="1"><g transform="translate(73.321734, 331.449998)"><g><path d="M 12.46875 -15.4375 L 12.46875 -12.4375 L 8.375 -12.4375 L 8.375 0 L 4.625 0 L 4.625 -12.4375 L 0.53125 -12.4375 L 0.53125 -15.4375 Z M 12.46875 -15.4375 "/></g></g></g><g fill="#ff3131" fill-opacity="1"><g transform="translate(86.32142, 331.449998)"><g><path d="M 5.125 -12.4375 L 5.125 -9.3125 L 10.15625 -9.3125 L 10.15625 -6.40625 L 5.125 -6.40625 L 5.125 -3.015625 L 10.828125 -3.015625 L 10.828125 0 L 1.359375 0 L 1.359375 -15.4375 L 10.828125 -15.4375 L 10.828125 -12.4375 Z M 5.125 -12.4375 "/></g></g></g><g fill="#ff3131" fill-opacity="1"><g transform="translate(98.221295, 331.449998)"><g><path d="M 9.234375 0 L 6.03125 -5.828125 L 5.125 -5.828125 L 5.125 0 L 1.359375 0 L 1.359375 -15.4375 L 7.671875 -15.4375 C 8.890625 -15.4375 9.925781 -15.222656 10.78125 -14.796875 C 11.644531 -14.378906 12.289062 -13.800781 12.71875 -13.0625 C 13.144531 -12.320312 13.359375 -11.492188 13.359375 -10.578125 C 13.359375 -9.554688 13.066406 -8.640625 12.484375 -7.828125 C 11.898438 -7.023438 11.046875 -6.453125 9.921875 -6.109375 L 13.484375 0 Z M 5.125 -8.484375 L 7.453125 -8.484375 C 8.140625 -8.484375 8.65625 -8.648438 9 -8.984375 C 9.351562 -9.328125 9.53125 -9.804688 9.53125 -10.421875 C 9.53125 -11.015625 9.351562 -11.476562 9 -11.8125 C 8.65625 -12.144531 8.140625 -12.3125 7.453125 -12.3125 L 5.125 -12.3125 Z M 5.125 -8.484375 "/></g></g></g><g fill="#ff3131" fill-opacity="1"><g transform="translate(112.562744, 331.449998)"><g><path d="M 15.1875 0 L 11.421875 0 L 5.125 -9.53125 L 5.125 0 L 1.359375 0 L 1.359375 -15.4375 L 5.125 -15.4375 L 11.421875 -5.875 L 11.421875 -15.4375 L 15.1875 -15.4375 Z M 15.1875 0 "/></g></g></g><g fill="#ff3131" fill-opacity="1"><g transform="translate(129.103792, 331.449998)"><g><path d="M 5.125 -12.4375 L 5.125 -9.3125 L 10.15625 -9.3125 L 10.15625 -6.40625 L 5.125 -6.40625 L 5.125 -3.015625 L 10.828125 -3.015625 L 10.828125 0 L 1.359375 0 L 1.359375 -15.4375 L 10.828125 -15.4375 L 10.828125 -12.4375 Z M 5.125 -12.4375 "/></g></g></g><g fill="#ff3131" fill-opacity="1"><g transform="translate(141.003667, 331.449998)"><g><path d="M 12.46875 -15.4375 L 12.46875 -12.4375 L 8.375 -12.4375 L 8.375 0 L 4.625 0 L 4.625 -12.4375 L 0.53125 -12.4375 L 0.53125 -15.4375 Z M 12.46875 -15.4375 "/></g></g></g><g fill="#ff3131" fill-opacity="1"><g transform="translate(154.003354, 331.449998)"><g/></g></g><g fill="#ff3131" fill-opacity="1"><g transform="translate(158.666523, 331.449998)"><g><path d="M 5.0625 -15.4375 L 5.0625 -6.203125 C 5.0625 -5.273438 5.285156 -4.5625 5.734375 -4.0625 C 6.191406 -3.570312 6.863281 -3.328125 7.75 -3.328125 C 8.625 -3.328125 9.296875 -3.570312 9.765625 -4.0625 C 10.234375 -4.5625 10.46875 -5.273438 10.46875 -6.203125 L 10.46875 -15.4375 L 14.234375 -15.4375 L 14.234375 -6.21875 C 14.234375 -4.84375 13.9375 -3.675781 13.34375 -2.71875 C 12.757812 -1.769531 11.972656 -1.050781 10.984375 -0.5625 C 9.992188 -0.0820312 8.890625 0.15625 7.671875 0.15625 C 6.460938 0.15625 5.375 -0.0820312 4.40625 -0.5625 C 3.445312 -1.039062 2.6875 -1.757812 2.125 -2.71875 C 1.570312 -3.675781 1.296875 -4.84375 1.296875 -6.21875 L 1.296875 -15.4375 Z M 5.0625 -15.4375 "/></g></g></g><g fill="#ff3131" fill-opacity="1"><g transform="translate(174.173758, 331.449998)"><g><path d="M 5.125 -2.90625 L 10.046875 -2.90625 L 10.046875 0 L 1.359375 0 L 1.359375 -15.4375 L 5.125 -15.4375 Z M 5.125 -2.90625 "/></g></g></g><g fill="#ff3131" fill-opacity="1"><g transform="translate(184.665884, 331.449998)"><g><path d="M 12.46875 -15.4375 L 12.46875 -12.4375 L 8.375 -12.4375 L 8.375 0 L 4.625 0 L 4.625 -12.4375 L 0.53125 -12.4375 L 0.53125 -15.4375 Z M 12.46875 -15.4375 "/></g></g></g><g fill="#ff3131" fill-opacity="1"><g transform="translate(197.66557, 331.449998)"><g><path d="M 9.234375 0 L 6.03125 -5.828125 L 5.125 -5.828125 L 5.125 0 L 1.359375 0 L 1.359375 -15.4375 L 7.671875 -15.4375 C 8.890625 -15.4375 9.925781 -15.222656 10.78125 -14.796875 C 11.644531 -14.378906 12.289062 -13.800781 12.71875 -13.0625 C 13.144531 -12.320312 13.359375 -11.492188 13.359375 -10.578125 C 13.359375 -9.554688 13.066406 -8.640625 12.484375 -7.828125 C 11.898438 -7.023438 11.046875 -6.453125 9.921875 -6.109375 L 13.484375 0 Z M 5.125 -8.484375 L 7.453125 -8.484375 C 8.140625 -8.484375 8.65625 -8.648438 9 -8.984375 C 9.351562 -9.328125 9.53125 -9.804688 9.53125 -10.421875 C 9.53125 -11.015625 9.351562 -11.476562 9 -11.8125 C 8.65625 -12.144531 8.140625 -12.3125 7.453125 -12.3125 L 5.125 -12.3125 Z M 5.125 -8.484375 "/></g></g></g><g fill="#ff3131" fill-opacity="1"><g transform="translate(212.007019, 331.449998)"><g><path d="M 10.984375 -2.734375 L 5.21875 -2.734375 L 4.296875 0 L 0.359375 0 L 5.9375 -15.4375 L 10.296875 -15.4375 L 15.890625 0 L 11.90625 0 Z M 10.015625 -5.625 L 8.09375 -11.28125 L 6.203125 -5.625 Z M 10.015625 -5.625 "/></g></g></g><g fill="#ff3131" fill-opacity="1"><g transform="translate(228.218135, 331.449998)"><g><path d="M 9.234375 0 L 6.03125 -5.828125 L 5.125 -5.828125 L 5.125 0 L 1.359375 0 L 1.359375 -15.4375 L 7.671875 -15.4375 C 8.890625 -15.4375 9.925781 -15.222656 10.78125 -14.796875 C 11.644531 -14.378906 12.289062 -13.800781 12.71875 -13.0625 C 13.144531 -12.320312 13.359375 -11.492188 13.359375 -10.578125 C 13.359375 -9.554688 13.066406 -8.640625 12.484375 -7.828125 C 11.898438 -7.023438 11.046875 -6.453125 9.921875 -6.109375 L 13.484375 0 Z M 5.125 -8.484375 L 7.453125 -8.484375 C 8.140625 -8.484375 8.65625 -8.648438 9 -8.984375 C 9.351562 -9.328125 9.53125 -9.804688 9.53125 -10.421875 C 9.53125 -11.015625 9.351562 -11.476562 9 -11.8125 C 8.65625 -12.144531 8.140625 -12.3125 7.453125 -12.3125 L 5.125 -12.3125 Z M 5.125 -8.484375 "/></g></g></g><g fill="#ff3131" fill-opacity="1"><g transform="translate(242.559572, 331.449998)"><g><path d="M 9.234375 0 L 6.03125 -5.828125 L 5.125 -5.828125 L 5.125 0 L 1.359375 0 L 1.359375 -15.4375 L 7.671875 -15.4375 C 8.890625 -15.4375 9.925781 -15.222656 10.78125 -14.796875 C 11.644531 -14.378906 12.289062 -13.800781 12.71875 -13.0625 C 13.144531 -12.320312 13.359375 -11.492188 13.359375 -10.578125 C 13.359375 -9.554688 13.066406 -8.640625 12.484375 -7.828125 C 11.898438 -7.023438 11.046875 -6.453125 9.921875 -6.109375 L 13.484375 0 Z M 5.125 -8.484375 L 7.453125 -8.484375 C 8.140625 -8.484375 8.65625 -8.648438 9 -8.984375 C 9.351562 -9.328125 9.53125 -9.804688 9.53125 -10.421875 C 9.53125 -11.015625 9.351562 -11.476562 9 -11.8125 C 8.65625 -12.144531 8.140625 -12.3125 7.453125 -12.3125 L 5.125 -12.3125 Z M 5.125 -8.484375 "/></g></g></g><g fill="#ff3131" fill-opacity="1"><g transform="translate(256.901032, 331.449998)"><g><path d="M 10.984375 -2.734375 L 5.21875 -2.734375 L 4.296875 0 L 0.359375 0 L 5.9375 -15.4375 L 10.296875 -15.4375 L 15.890625 0 L 11.90625 0 Z M 10.015625 -5.625 L 8.09375 -11.28125 L 6.203125 -5.625 Z M 10.015625 -5.625 "/></g></g></g><g fill="#ff3131" fill-opacity="1"><g transform="translate(273.112136, 331.449998)"><g><path d="M 13.140625 -10.46875 C 13.140625 -9.570312 12.929688 -8.753906 12.515625 -8.015625 C 12.109375 -7.273438 11.476562 -6.675781 10.625 -6.21875 C 9.769531 -5.769531 8.710938 -5.546875 7.453125 -5.546875 L 5.125 -5.546875 L 5.125 0 L 1.359375 0 L 1.359375 -15.4375 L 7.453125 -15.4375 C 8.691406 -15.4375 9.734375 -15.222656 10.578125 -14.796875 C 11.429688 -14.378906 12.070312 -13.796875 12.5 -13.046875 C 12.925781 -12.296875 13.140625 -11.4375 13.140625 -10.46875 Z M 7.171875 -8.53125 C 7.890625 -8.53125 8.425781 -8.695312 8.78125 -9.03125 C 9.132812 -9.375 9.3125 -9.851562 9.3125 -10.46875 C 9.3125 -11.082031 9.132812 -11.554688 8.78125 -11.890625 C 8.425781 -12.234375 7.890625 -12.40625 7.171875 -12.40625 L 5.125 -12.40625 L 5.125 -8.53125 Z M 7.171875 -8.53125 "/></g></g></g><g fill="#ff3131" fill-opacity="1"><g transform="translate(286.837675, 331.449998)"><g><path d="M 5.125 -15.4375 L 5.125 0 L 1.359375 0 L 1.359375 -15.4375 Z M 5.125 -15.4375 "/></g></g></g><g fill="#ff3131" fill-opacity="1"><g transform="translate(293.326521, 331.449998)"><g><path d="M 7.15625 -15.4375 C 8.78125 -15.4375 10.203125 -15.113281 11.421875 -14.46875 C 12.640625 -13.832031 13.582031 -12.929688 14.25 -11.765625 C 14.914062 -10.597656 15.25 -9.25 15.25 -7.71875 C 15.25 -6.207031 14.914062 -4.863281 14.25 -3.6875 C 13.582031 -2.519531 12.632812 -1.613281 11.40625 -0.96875 C 10.175781 -0.320312 8.757812 0 7.15625 0 L 1.359375 0 L 1.359375 -15.4375 Z M 6.90625 -3.25 C 8.332031 -3.25 9.441406 -3.640625 10.234375 -4.421875 C 11.023438 -5.203125 11.421875 -6.300781 11.421875 -7.71875 C 11.421875 -9.144531 11.023438 -10.253906 10.234375 -11.046875 C 9.441406 -11.835938 8.332031 -12.234375 6.90625 -12.234375 L 5.125 -12.234375 L 5.125 -3.25 Z M 6.90625 -3.25 "/></g></g></g><g fill="#ff3131" fill-opacity="1"><g transform="translate(309.317669, 331.449998)"><g><path d="M 10.984375 -2.734375 L 5.21875 -2.734375 L 4.296875 0 L 0.359375 0 L 5.9375 -15.4375 L 10.296875 -15.4375 L 15.890625 0 L 11.90625 0 Z M 10.015625 -5.625 L 8.09375 -11.28125 L 6.203125 -5.625 Z M 10.015625 -5.625 "/></g></g></g><g fill="#ff3131" fill-opacity="1"><g transform="translate(325.530103, 331.449998)"><g/></g></g><path stroke-linecap="butt" transform="matrix(0.75, 0.000000000000000115, -0.000000000000000115, 0.75, 48.465815, 306.271444)" fill="none" stroke-linejoin="miter" d="M -0.00129489 1.99745 L 370.759146 1.99745 " stroke="#004aad" stroke-width="4" stroke-opacity="1" stroke-miterlimit="4"/></svg>