<svg xmlns="http://www.w3.org/2000/svg" xmlns:xlink="http://www.w3.org/1999/xlink" width="500" zoomAndPan="magnify" viewBox="0 0 375 374.999991" height="500" preserveAspectRatio="xMidYMid meet" version="1.0"><path fill="#ff3131" d="M 187.5 272.175781 C 169.824219 272.175781 155.332031 286.664062 155.332031 304.34375 C 155.332031 322.019531 169.824219 336.511719 187.5 336.511719 C 205.179688 336.511719 219.667969 322.019531 219.667969 304.34375 C 219.667969 286.375 205.179688 272.175781 187.5 272.175781 Z M 187.5 272.175781 " fill-opacity="1" fill-rule="nonzero"/><path fill="#ff3131" d="M 187.5 195.957031 C 157.941406 195.957031 130.121094 207.550781 109.253906 228.125 C 100.851562 236.53125 100.851562 250.152344 109.253906 258.554688 C 113.3125 262.613281 118.816406 264.929688 124.613281 264.929688 C 130.410156 264.929688 135.914062 262.613281 139.972656 258.554688 C 152.722656 245.804688 169.53125 238.847656 187.5 238.847656 C 205.46875 238.847656 222.566406 245.804688 235.316406 258.554688 C 239.375 262.613281 244.878906 264.929688 250.675781 264.929688 C 256.472656 264.929688 261.976562 262.613281 266.035156 258.554688 C 274.441406 250.152344 274.441406 236.53125 266.035156 228.125 C 244.878906 207.550781 217.058594 195.957031 187.5 195.957031 Z M 187.5 195.957031 " fill-opacity="1" fill-rule="nonzero"/><path fill="#ff3131" d="M 366.597656 128.144531 C 318.777344 80.328125 255.023438 53.957031 187.5 53.957031 C 119.976562 53.957031 56.222656 80.039062 8.402344 127.855469 C 0 136.261719 0 149.878906 8.402344 158.285156 C 12.460938 162.34375 17.96875 164.660156 23.761719 164.660156 C 29.558594 164.660156 35.066406 162.34375 39.121094 158.285156 C 78.535156 118.871094 131.277344 97.136719 187.5 97.136719 C 243.722656 97.136719 296.464844 118.871094 336.167969 158.574219 C 340.222656 162.632812 345.730469 164.949219 351.527344 164.949219 C 357.324219 164.949219 362.828125 162.632812 366.886719 158.574219 C 375 150.171875 375 136.550781 366.597656 128.144531 Z M 366.597656 128.144531 " fill-opacity="1" fill-rule="nonzero"/><path fill="#ff3131" d="M 187.5 126.695312 C 139.394531 126.695312 94.183594 145.242188 59.988281 179.152344 C 55.929688 183.207031 53.613281 188.714844 53.613281 194.511719 C 53.613281 200.304688 55.929688 205.8125 59.988281 209.871094 C 64.046875 213.925781 69.550781 216.246094 75.347656 216.246094 C 81.144531 216.246094 86.648438 213.925781 90.707031 209.871094 C 116.5 184.078125 150.984375 169.875 187.5 169.875 C 224.015625 169.875 258.5 184.078125 284.292969 209.871094 C 288.351562 213.925781 293.855469 216.246094 299.652344 216.246094 C 305.449219 216.246094 310.953125 213.925781 315.011719 209.871094 C 319.070312 205.8125 321.386719 200.304688 321.386719 194.511719 C 321.386719 188.714844 319.070312 183.207031 315.011719 179.152344 C 280.816406 145.535156 235.605469 126.695312 187.5 126.695312 Z M 187.5 126.695312 " fill-opacity="1" fill-rule="nonzero"/></svg>